<svg xmlns="http://www.w3.org/2000/svg" xmlns:xlink="http://www.w3.org/1999/xlink" width="250" zoomAndPan="magnify" viewBox="0 0 187.5 33.749998" height="45" preserveAspectRatio="xMidYMid meet" version="1.0">
    <defs>
        <g/>
    </defs>
    <g fill="#007aff" fill-opacity="1">
        <g transform="translate(5.507171, 24.296043)">
            <g>
                <path d="M 6.03125 -8.046875 L 6.03125 0 L 1.453125 0 L 1.453125 -20.0625 L 6.03125 -20.0625 L 6.03125 -12.0625 L 12.5 -12.0625 L 12.5 -20.0625 L 17.0625 -20.0625 L 17.0625 0 L 12.5 0 L 12.5 -8.046875 Z M 6.03125 -8.046875 "/>
            </g>
        </g>
        <g transform="translate(24.024162, 24.296043)">
            <g>
                <path d="M 2.3125 -1.546875 C 1.144531 -2.816406 0.5625 -4.375 0.5625 -6.21875 C 0.5625 -8.070312 1.144531 -9.640625 2.3125 -10.921875 C 3.476562 -12.203125 4.960938 -12.84375 6.765625 -12.84375 C 8.410156 -12.84375 9.769531 -12.320312 10.84375 -11.28125 L 10.84375 -12.46875 L 15.140625 -12.46875 L 15.140625 0 L 10.890625 0 L 10.890625 -1.40625 L 10.84375 -1.40625 C 9.769531 -0.226562 8.410156 0.359375 6.765625 0.359375 C 4.960938 0.359375 3.476562 -0.273438 2.3125 -1.546875 Z M 5.96875 -8.34375 C 5.40625 -7.789062 5.125 -7.082031 5.125 -6.21875 C 5.125 -5.363281 5.390625 -4.664062 5.921875 -4.125 C 6.460938 -3.582031 7.171875 -3.3125 8.046875 -3.3125 C 8.890625 -3.3125 9.582031 -3.582031 10.125 -4.125 C 10.664062 -4.675781 10.9375 -5.375 10.9375 -6.21875 C 10.9375 -7.082031 10.65625 -7.789062 10.09375 -8.34375 C 9.539062 -8.894531 8.859375 -9.171875 8.046875 -9.171875 C 7.222656 -9.171875 6.53125 -8.894531 5.96875 -8.34375 Z M 5.96875 -8.34375 "/>
            </g>
        </g>
        <!-- Add more <g> elements as needed with modified paths -->
    </g>
</svg>
