<svg xmlns="http://www.w3.org/2000/svg" xmlns:xlink="http://www.w3.org/1999/xlink" width="250" zoomAndPan="magnify" viewBox="0 0 187.5 33.749998" height="45" preserveAspectRatio="xMidYMid meet" version="1.0"><defs><g/></defs><g fill="#a993fe" fill-opacity="1"><g transform="translate(5.507171, 24.296043)"><g><path d="M 6.03125 -8.046875 L 6.03125 0 L 1.453125 0 L 1.453125 -20.0625 L 6.03125 -20.0625 L 6.03125 -12.0625 L 12.5 -12.0625 L 12.5 -20.0625 L 17.0625 -20.0625 L 17.0625 0 L 12.5 0 L 12.5 -8.046875 Z M 6.03125 -8.046875 "/></g></g></g><g fill="#a993fe" fill-opacity="1"><g transform="translate(24.024162, 24.296043)"><g><path d="M 2.3125 -1.546875 C 1.144531 -2.816406 0.5625 -4.375 0.5625 -6.21875 C 0.5625 -8.070312 1.144531 -9.640625 2.3125 -10.921875 C 3.476562 -12.203125 4.960938 -12.84375 6.765625 -12.84375 C 8.410156 -12.84375 9.769531 -12.320312 10.84375 -11.28125 L 10.84375 -12.46875 L 15.140625 -12.46875 L 15.140625 0 L 10.890625 0 L 10.890625 -1.40625 L 10.84375 -1.40625 C 9.769531 -0.226562 8.410156 0.359375 6.765625 0.359375 C 4.960938 0.359375 3.476562 -0.273438 2.3125 -1.546875 Z M 5.96875 -8.34375 C 5.40625 -7.789062 5.125 -7.082031 5.125 -6.21875 C 5.125 -5.363281 5.390625 -4.664062 5.921875 -4.125 C 6.460938 -3.582031 7.171875 -3.3125 8.046875 -3.3125 C 8.890625 -3.3125 9.582031 -3.582031 10.125 -4.125 C 10.664062 -4.675781 10.9375 -5.375 10.9375 -6.21875 C 10.9375 -7.082031 10.65625 -7.789062 10.09375 -8.34375 C 9.539062 -8.894531 8.859375 -9.171875 8.046875 -9.171875 C 7.222656 -9.171875 6.53125 -8.894531 5.96875 -8.34375 Z M 5.96875 -8.34375 "/></g></g></g><g fill="#a993fe" fill-opacity="1"><g transform="translate(40.621414, 24.296043)"><g><path d="M 2.3125 -1.5625 C 1.144531 -2.84375 0.5625 -4.40625 0.5625 -6.25 C 0.5625 -8.09375 1.144531 -9.648438 2.3125 -10.921875 C 3.476562 -12.203125 4.960938 -12.84375 6.765625 -12.84375 C 8.410156 -12.84375 9.769531 -12.25 10.84375 -11.0625 L 10.890625 -11.0625 L 10.890625 -12.46875 L 15.140625 -12.46875 L 15.140625 6.328125 L 10.84375 6.328125 L 10.84375 -1.1875 C 9.769531 -0.15625 8.410156 0.359375 6.765625 0.359375 C 4.960938 0.359375 3.476562 -0.28125 2.3125 -1.5625 Z M 5.921875 -8.34375 C 5.390625 -7.800781 5.125 -7.097656 5.125 -6.234375 C 5.125 -5.378906 5.40625 -4.675781 5.96875 -4.125 C 6.53125 -3.582031 7.222656 -3.3125 8.046875 -3.3125 C 8.859375 -3.3125 9.539062 -3.582031 10.09375 -4.125 C 10.65625 -4.675781 10.9375 -5.382812 10.9375 -6.25 C 10.9375 -7.09375 10.664062 -7.789062 10.125 -8.34375 C 9.582031 -8.894531 8.890625 -9.171875 8.046875 -9.171875 C 7.171875 -9.171875 6.460938 -8.894531 5.921875 -8.34375 Z M 5.921875 -8.34375 "/></g></g></g><g fill="#a993fe" fill-opacity="1"><g transform="translate(57.218665, 24.296043)"><g><path d="M 2.3125 -1.546875 C 1.144531 -2.816406 0.5625 -4.375 0.5625 -6.21875 C 0.5625 -8.070312 1.144531 -9.640625 2.3125 -10.921875 C 3.476562 -12.203125 4.960938 -12.84375 6.765625 -12.84375 C 8.410156 -12.84375 9.769531 -12.320312 10.84375 -11.28125 L 10.84375 -20.90625 L 15.140625 -20.90625 L 15.140625 0 L 10.890625 0 L 10.890625 -1.40625 L 10.84375 -1.40625 C 9.769531 -0.226562 8.410156 0.359375 6.765625 0.359375 C 4.960938 0.359375 3.476562 -0.273438 2.3125 -1.546875 Z M 5.96875 -8.34375 C 5.40625 -7.789062 5.125 -7.082031 5.125 -6.21875 C 5.125 -5.363281 5.390625 -4.664062 5.921875 -4.125 C 6.460938 -3.582031 7.171875 -3.3125 8.046875 -3.3125 C 8.890625 -3.3125 9.582031 -3.582031 10.125 -4.125 C 10.664062 -4.675781 10.9375 -5.375 10.9375 -6.21875 C 10.9375 -7.082031 10.65625 -7.789062 10.09375 -8.34375 C 9.539062 -8.894531 8.859375 -9.171875 8.046875 -9.171875 C 7.222656 -9.171875 6.53125 -8.894531 5.96875 -8.34375 Z M 5.96875 -8.34375 "/></g></g></g><g fill="#a993fe" fill-opacity="1"><g transform="translate(73.815916, 24.296043)"><g><path d="M 2.3125 -1.546875 C 1.144531 -2.816406 0.5625 -4.375 0.5625 -6.21875 C 0.5625 -8.070312 1.144531 -9.640625 2.3125 -10.921875 C 3.476562 -12.203125 4.960938 -12.84375 6.765625 -12.84375 C 8.410156 -12.84375 9.769531 -12.320312 10.84375 -11.28125 L 10.84375 -12.46875 L 15.140625 -12.46875 L 15.140625 0 L 10.890625 0 L 10.890625 -1.40625 L 10.84375 -1.40625 C 9.769531 -0.226562 8.410156 0.359375 6.765625 0.359375 C 4.960938 0.359375 3.476562 -0.273438 2.3125 -1.546875 Z M 5.96875 -8.34375 C 5.40625 -7.789062 5.125 -7.082031 5.125 -6.21875 C 5.125 -5.363281 5.390625 -4.664062 5.921875 -4.125 C 6.460938 -3.582031 7.171875 -3.3125 8.046875 -3.3125 C 8.890625 -3.3125 9.582031 -3.582031 10.125 -4.125 C 10.664062 -4.675781 10.9375 -5.375 10.9375 -6.21875 C 10.9375 -7.082031 10.65625 -7.789062 10.09375 -8.34375 C 9.539062 -8.894531 8.859375 -9.171875 8.046875 -9.171875 C 7.222656 -9.171875 6.53125 -8.894531 5.96875 -8.34375 Z M 5.96875 -8.34375 "/></g></g></g><g fill="#a993fe" fill-opacity="1"><g transform="translate(90.413167, 24.296043)"><g><path d="M 2.3125 -1.546875 C 1.144531 -2.816406 0.5625 -4.375 0.5625 -6.21875 C 0.5625 -8.070312 1.144531 -9.640625 2.3125 -10.921875 C 3.476562 -12.203125 4.960938 -12.84375 6.765625 -12.84375 C 8.410156 -12.84375 9.769531 -12.320312 10.84375 -11.28125 L 10.84375 -20.90625 L 15.140625 -20.90625 L 15.140625 0 L 10.890625 0 L 10.890625 -1.40625 L 10.84375 -1.40625 C 9.769531 -0.226562 8.410156 0.359375 6.765625 0.359375 C 4.960938 0.359375 3.476562 -0.273438 2.3125 -1.546875 Z M 5.96875 -8.34375 C 5.40625 -7.789062 5.125 -7.082031 5.125 -6.21875 C 5.125 -5.363281 5.390625 -4.664062 5.921875 -4.125 C 6.460938 -3.582031 7.171875 -3.3125 8.046875 -3.3125 C 8.890625 -3.3125 9.582031 -3.582031 10.125 -4.125 C 10.664062 -4.675781 10.9375 -5.375 10.9375 -6.21875 C 10.9375 -7.082031 10.65625 -7.789062 10.09375 -8.34375 C 9.539062 -8.894531 8.859375 -9.171875 8.046875 -9.171875 C 7.222656 -9.171875 6.53125 -8.894531 5.96875 -8.34375 Z M 5.96875 -8.34375 "/></g></g></g><g fill="#a993fe" fill-opacity="1"><g transform="translate(107.010418, 24.296043)"><g/></g></g><g fill="#a993fe" fill-opacity="1"><g transform="translate(113.644455, 24.296043)"><g><path d="M 19.71875 0 L 13.421875 0 L 6.03125 -8.515625 L 6.03125 0 L 1.453125 0 L 1.453125 -20.0625 L 6.03125 -20.0625 L 6.03125 -11.859375 L 12.90625 -20.0625 L 18.453125 -20.0625 L 10.375 -10.546875 Z M 19.71875 0 "/></g></g></g><g fill="#a993fe" fill-opacity="1"><g transform="translate(132.768964, 24.296043)"><g><path d="M 1.453125 0 L 1.453125 -20.90625 L 5.765625 -20.90625 L 5.765625 -11.15625 L 5.8125 -11.15625 C 6.925781 -12.28125 8.117188 -12.84375 9.390625 -12.84375 C 10.003906 -12.84375 10.613281 -12.757812 11.21875 -12.59375 C 11.820312 -12.425781 12.40625 -12.171875 12.96875 -11.828125 C 13.53125 -11.492188 13.984375 -11.015625 14.328125 -10.390625 C 14.679688 -9.765625 14.859375 -9.039062 14.859375 -8.21875 L 14.859375 0 L 10.546875 0 L 10.546875 -7.046875 C 10.546875 -7.691406 10.335938 -8.257812 9.921875 -8.75 C 9.515625 -9.238281 8.976562 -9.484375 8.3125 -9.484375 C 7.664062 -9.484375 7.078125 -9.226562 6.546875 -8.71875 C 6.023438 -8.21875 5.765625 -7.660156 5.765625 -7.046875 L 5.765625 0 Z M 1.453125 0 "/></g></g></g><g fill="#a993fe" fill-opacity="1"><g transform="translate(148.831605, 24.296043)"><g><path d="M 2.3125 -1.546875 C 1.144531 -2.816406 0.5625 -4.375 0.5625 -6.21875 C 0.5625 -8.070312 1.144531 -9.640625 2.3125 -10.921875 C 3.476562 -12.203125 4.960938 -12.84375 6.765625 -12.84375 C 8.410156 -12.84375 9.769531 -12.320312 10.84375 -11.28125 L 10.84375 -12.46875 L 15.140625 -12.46875 L 15.140625 0 L 10.890625 0 L 10.890625 -1.40625 L 10.84375 -1.40625 C 9.769531 -0.226562 8.410156 0.359375 6.765625 0.359375 C 4.960938 0.359375 3.476562 -0.273438 2.3125 -1.546875 Z M 5.96875 -8.34375 C 5.40625 -7.789062 5.125 -7.082031 5.125 -6.21875 C 5.125 -5.363281 5.390625 -4.664062 5.921875 -4.125 C 6.460938 -3.582031 7.171875 -3.3125 8.046875 -3.3125 C 8.890625 -3.3125 9.582031 -3.582031 10.125 -4.125 C 10.664062 -4.675781 10.9375 -5.375 10.9375 -6.21875 C 10.9375 -7.082031 10.65625 -7.789062 10.09375 -8.34375 C 9.539062 -8.894531 8.859375 -9.171875 8.046875 -9.171875 C 7.222656 -9.171875 6.53125 -8.894531 5.96875 -8.34375 Z M 5.96875 -8.34375 "/></g></g></g><g fill="#a993fe" fill-opacity="1"><g transform="translate(165.428856, 24.296043)"><g><path d="M 1.453125 0 L 1.453125 -12.46875 L 5.765625 -12.46875 L 5.765625 -11.15625 L 5.8125 -11.15625 C 6.925781 -12.28125 8.117188 -12.84375 9.390625 -12.84375 C 10.003906 -12.84375 10.613281 -12.757812 11.21875 -12.59375 C 11.820312 -12.425781 12.40625 -12.171875 12.96875 -11.828125 C 13.53125 -11.492188 13.984375 -11.015625 14.328125 -10.390625 C 14.679688 -9.765625 14.859375 -9.039062 14.859375 -8.21875 L 14.859375 0 L 10.546875 0 L 10.546875 -7.046875 C 10.546875 -7.691406 10.335938 -8.257812 9.921875 -8.75 C 9.515625 -9.238281 8.976562 -9.484375 8.3125 -9.484375 C 7.664062 -9.484375 7.078125 -9.226562 6.546875 -8.71875 C 6.023438 -8.21875 5.765625 -7.660156 5.765625 -7.046875 L 5.765625 0 Z M 1.453125 0 "/></g></g></g></svg> 